<?xml version="1.0" standalone="no"?><!DOCTYPE svg PUBLIC "-//W3C//DTD SVG 1.1//EN" "http://www.w3.org/Graphics/SVG/1.1/DTD/svg11.dtd"><svg t="1558910558425" class="icon" style="" viewBox="0 0 1024 1024" version="1.1" xmlns="http://www.w3.org/2000/svg" p-id="1793" xmlns:xlink="http://www.w3.org/1999/xlink" width="32" height="32"><defs><style type="text/css"></style></defs><path d="M948.27 385.65L596.858 35.098c-46.792-46.79-122.926-46.79-169.678-0.036L75.728 385.646c-15.64 15.604-15.672 40.932-0.07 56.572 15.604 15.642 40.932 15.67 56.57 0.07L483.716 91.666c15.594-15.594 40.974-15.596 56.604 0.036l351.45 350.588a39.88 39.88 0 0 0 28.252 11.68 39.888 39.888 0 0 0 28.32-11.748c15.602-15.642 15.57-40.97-0.072-56.572z" p-id="1794" fill="#e6e6e6"></path><path d="M512 217.958c-22.094 0-40.002 17.908-40.002 40.002v726.036c0 22.094 17.908 40.002 40.002 40.002s40.002-17.908 40.002-40.002V257.96c0-22.092-17.908-40.002-40.002-40.002z" p-id="1795" fill="#e6e6e6"></path></svg>